{
    "asset": {
        "version": "2.0",
        "generator": "Open Asset Import Library (assimp v5.4.0)"
    },
    "extensionsUsed": [
        "KHR_materials_volume",
        "FB_ngon_encoding"
    ],
    "accessors": [
        {
            "bufferView": 0,
            "byteOffset": 0,
            "componentType": 5126,
            "count": 1111,
            "type": "VEC3",
            "max": [
                45.0,
                26.0,
                68.0
            ],
            "min": [
                -52.0,
                -28.0,
                0.0
            ]
        },
        {
            "bufferView": 1,
            "byteOffset": 0,
            "componentType": 5126,
            "count": 1111,
            "type": "VEC3",
            "max": [
                1.0,
                0.9876973628997803,
                1.0
            ],
            "min": [
                -1.0,
                -0.9876973628997803,
                -1.0
            ]
        },
        {
            "bufferView": 2,
            "byteOffset": 0,
            "componentType": 5126,
            "count": 1111,
            "type": "VEC4",
            "max": [
                0.9607843160629272,
                0.7176470756530762,
                0.2862745225429535,
                0.0
            ],
            "min": [
                0.27450981736183167,
                0.5137255191802979,
                0.12156862765550613,
                0.0
            ]
        },
        {
            "bufferView": 3,
            "byteOffset": 0,
            "componentType": 5125,
            "count": 2232,
            "type": "SCALAR",
            "max": [
                1110
            ],
            "min": [
                0
            ]
        }
    ],
    "buffers": [
        {
            "byteLength": 53368,
            "uri": "acropolis_0.bin"
        }
    ],
    "bufferViews": [
        {
            "buffer": 0,
            "byteOffset": 0,
            "byteLength": 13332,
            "target": 34962
        },
        {
            "buffer": 0,
            "byteOffset": 13332,
            "byteLength": 13332,
            "target": 34962
        },
        {
            "buffer": 0,
            "byteOffset": 26664,
            "byteLength": 17776,
            "target": 34962
        },
        {
            "buffer": 0,
            "byteOffset": 44440,
            "byteLength": 8928,
            "target": 34963
        }
    ],
    "materials": [
        {
            "name": "lambert2SG.001",
            "pbrMetallicRoughness": {
                "metallicFactor": 0.5,
                "roughnessFactor": 0.5
            }
        }
    ],
    "meshes": [
        {
            "name": "meshes[0]",
            "primitives": [
                {
                    "mode": 4,
                    "material": 0,
                    "indices": 3,
                    "attributes": {
                        "POSITION": 0,
                        "NORMAL": 1,
                        "COLOR_0": 2
                    }
                }
            ]
        }
    ],
    "nodes": [
        {
            "name": "acropolis",
            "children": [
                1
            ]
        },
        {
            "name": "nodes[1]",
            "matrix": [
                1.0,
                0.0,
                0.0,
                0.0,
                0.0,
                2.220446049250313e-16,
                -1.0,
                0.0,
                0.0,
                1.0,
                2.220446049250313e-16,
                0.0,
                0.0,
                0.0,
                0.0,
                1.0
            ],
            "children": [
                2
            ]
        },
        {
            "name": "Mesh_Mesh_head_geo001_lambert2SG001",
            "mesh": 0,
            "extras": {
                "name": "Mesh_Mesh_head_geo.001_lambert2SG.001"
            }
        }
    ],
    "scenes": [
        {
            "nodes": [
                0
            ]
        }
    ],
    "scene": 0
}